<svg xmlns="http://www.w3.org/2000/svg" viewBox="0 0 760 760" width="760" height="760" preserveAspectRatio="xMidYMid meet" style="width: 100%; height: 100%; transform: translate3d(0px, 0px, 0px);"><defs><clipPath id="__lottie_element_197"><rect width="760" height="760" x="0" y="0"></rect></clipPath></defs><g clip-path="url(#__lottie_element_197)"><g style="display: block;" transform="matrix(1,0,0,1,146.65501403808594,204.5540008544922)" opacity="1"><g opacity="1" transform="matrix(1,0,0,1,237.13699340820312,221.1959991455078)"><path fill="rgb(152,217,111)" fill-opacity="1" d=" M217.05299377441406,-27.67099952697754 C209.26699829101562,-65.76399993896484 170.7449951171875,-64.63700103759766 155.0919952392578,-67.24600219726562 C139.43899536132812,-69.85399627685547 142.1909942626953,-90.072998046875 142.1909942626953,-115.98300170898438 C142.1909942626953,-141.89300537109375 140.44500732421875,-151.28399658203125 133.3179931640625,-163.22799682617188 C115.8219985961914,-192.54800415039062 54.45800018310547,-220.9459991455078 -43.694000244140625,-220.51600646972656 C-219.39199829101562,-219.7469940185547 -227.75900268554688,-163.12100219726562 -229.5800018310547,-115.96399688720703 C-231.40199279785156,-68.80599975585938 -221.60499572753906,54.36399841308594 -206.74899291992188,133.8459930419922 C-190.46800231933594,220.9459991455078 -16.44099998474121,195.5970001220703 48.12900161743164,192.33599853515625 C112.697998046875,189.0749969482422 123.13400268554688,162.33399963378906 126.3949966430664,136.24600219726562 C129.656005859375,110.15699768066406 145.3090057373047,118.63600158691406 188.35499572753906,97.11299896240234 C231.40199279785156,75.58999633789062 223.6300048828125,4.511000156402588 217.05299377441406,-27.67099952697754z M176.58399963378906,50.755001068115234 C174.04400634765625,73.25399780273438 135.04200744628906,74.92400360107422 133.73800659179688,63.62300109863281 C131.8040008544922,46.861000061035156 134.9010009765625,-6.504000186920166 135.91000366210938,-14.380999565124512 C137.17599487304688,-24.267000198364258 141.28199768066406,-34.2140007019043 160.22900390625,-27.67099952697754 C180.93600463867188,-20.520999908447266 180.41299438476562,16.834999084472656 176.58399963378906,50.755001068115234z"></path></g><g opacity="1" transform="matrix(1,0,0,1,189.78900146484375,103.44599914550781)"><path fill="rgb(199,95,0)" fill-opacity="1" d=" M-181.1269989013672,-6.449999809265137 C-189.53900146484375,19.666000366210938 -152.14599609375,73.10600280761719 7.171000003814697,73.10600280761719 C166.48699951171875,73.10600280761719 189.53900146484375,15.755000114440918 189.53900146484375,1.7669999599456787 C189.53900146484375,-45.69599914550781 85.93499755859375,-73.10700225830078 -6.692999839782715,-69.15799713134766 C-113.67900085449219,-64.5979995727539 -170.9709930419922,-37.98099899291992 -181.1269989013672,-6.449999809265137z"></path></g><g opacity="1" transform="matrix(1,0,0,1,180.2790069580078,99.89099884033203)"><path fill="rgb(255,255,255)" fill-opacity="1" d=" M-89.1729965209961,8.07699966430664 C-89.1729965209961,8.07699966430664 19.90999984741211,-46.74100112915039 55.81999969482422,-42.180999755859375 C90.48899841308594,-37.77799987792969 91.68800354003906,-14.25 69.67500305175781,-3.9089999198913574 C68.87000274658203,-3.5309998989105225 68.94999694824219,-2.364000082015991 69.80000305175781,-2.1010000705718994 C77.55699920654297,0.3019999861717224 100.08599853515625,8.437999725341797 99.14099884033203,21.660999298095703 C98.0009994506836,37.62099838256836 74.06099700927734,46.74100112915039 30.170000076293945,39.9010009765625 C-13.720999717712402,33.06100082397461 -75.4260025024414,26.761999130249023 -87.75599670410156,23.91200065612793 C-100.08599853515625,21.062000274658203 -97.5719985961914,12.362000465393066 -89.1729965209961,8.07699966430664z"></path></g></g></g></svg>